<svg width="722" height="150" viewBox="0 0 722 150" fill="none" xmlns="http://www.w3.org/2000/svg">
<rect x="8.5" y="24.5" width="157.5" height="97.54" rx="7.5" fill="white"/>
<rect x="8.5" y="24.5" width="157.5" height="97.54" rx="7.5" stroke="#E2E5F1"/>
<g clip-path="url(#clip0_20005128_14627)">
<g clip-path="url(#clip1_20005128_14627)">
<path d="M35.9222 84.9813H59.3446V61.559H35.9222V84.9813ZM54.9529 70.9828H50.0122V66.0421H54.9529V70.9828ZM40.4969 66.0421H45.4376V75.5575H54.9529V80.4981H40.4969V66.0421ZM74.7155 61.559C72.4282 61.559 70.1408 62.2909 68.2195 63.5718C66.2981 64.8527 64.7427 66.6826 63.9193 68.8784C63.0043 70.9828 62.8213 73.3616 63.2788 75.649C63.7363 77.9363 64.8342 80.0406 66.4811 81.6875C68.128 83.3344 70.2323 84.4323 72.5196 84.8898C74.807 85.3473 77.1858 85.0728 79.2902 84.2493C81.4173 83.3255 83.2521 81.8387 84.5968 79.9492C85.8777 78.0278 86.6096 75.7405 86.6096 73.4531C86.6096 70.3423 85.3287 67.3231 83.1329 65.1272C80.8456 62.7484 77.8263 61.559 74.7155 61.559ZM74.7155 80.4981C73.2516 80.4981 71.8792 80.0406 70.6898 79.3087C69.5004 78.4853 68.5854 77.3873 68.0365 76.1064C67.4875 74.8255 67.3045 73.3616 67.6705 71.8977C67.945 70.5253 68.6769 69.2444 69.6833 68.238C70.6898 67.2316 71.9707 66.4996 73.3431 66.2251C74.7155 65.9506 76.1794 66.1336 77.5518 66.5911C78.8327 67.1401 80.0221 68.055 80.7541 69.2444C81.5775 70.4338 81.9435 71.8062 81.9435 73.2701C81.9435 75.1915 81.2115 77.0214 79.8391 78.3938C78.4667 79.7662 76.6369 80.4981 74.7155 80.4981ZM128.422 61.559C126.135 61.559 123.847 62.2909 121.926 63.5718C120.005 64.8527 118.449 66.6826 117.626 68.8784C116.711 70.9828 116.528 73.3616 116.985 75.649C117.443 77.9363 118.541 80.0406 120.188 81.6875C121.835 83.3344 123.939 84.4323 126.226 84.8898C128.514 85.3473 130.893 85.0728 132.997 84.2493C135.124 83.3255 136.959 81.8387 138.303 79.9492C139.584 78.0278 140.316 75.7405 140.316 73.4531C140.316 70.3423 139.035 67.3231 136.84 65.1272C134.552 62.7484 131.533 61.559 128.422 61.559ZM128.422 80.4981C126.958 80.4981 125.586 80.0406 124.396 79.3087C123.207 78.4853 122.292 77.3873 121.743 76.1064C121.194 74.8255 121.011 73.3616 121.377 71.8977C121.652 70.5253 122.384 69.2444 123.39 68.238C124.396 67.2316 125.677 66.4996 127.05 66.2251C128.422 65.9506 129.886 66.1336 131.258 66.5911C132.539 67.1401 133.729 68.055 134.461 69.2444C135.284 70.4338 135.65 71.8062 135.65 73.2701C135.65 75.1915 134.918 77.0214 133.546 78.3938C132.173 79.7662 130.344 80.4981 128.422 80.4981ZM101.615 61.559C99.3272 61.559 97.0399 62.2909 95.1185 63.5718C93.1972 64.8527 91.6418 66.6826 90.8183 68.8784C89.9034 70.9828 89.7204 73.3616 90.1779 75.649C90.6354 77.9363 91.7333 80.0406 93.3802 81.6875C95.027 83.3344 97.1314 84.4323 99.4187 84.8898C101.706 85.3473 104.085 85.0728 106.189 84.2493C108.316 83.3255 110.151 81.8387 111.496 79.9492C112.777 78.0278 113.509 75.7405 113.509 73.4531C113.509 70.3423 112.228 67.3231 110.032 65.1272C107.653 62.7484 104.725 61.559 101.615 61.559ZM101.615 80.4981C100.242 80.4981 98.9613 80.1321 97.8633 79.4002C96.7654 78.6682 95.8505 77.7533 95.21 76.5639C94.5696 75.3745 94.2951 74.0936 94.4781 72.7212C94.5696 71.4403 95.027 70.1593 95.8505 69.0614C96.6739 67.9635 97.6804 67.1401 98.9613 66.5911C100.151 66.0421 101.523 65.9506 102.804 66.1336C104.085 66.3166 105.366 66.8656 106.372 67.7805C107.379 68.604 108.111 69.7934 108.568 70.9828H101.706V75.466H108.568C108.111 76.9299 107.196 78.1193 105.915 79.0342C104.542 80.0406 103.078 80.4981 101.615 80.4981Z" fill="#B4B7C9"/>
</g>
</g>
<rect x="191" y="24.5" width="157.5" height="97.54" rx="7.5" fill="white"/>
<rect x="191" y="24.5" width="157.5" height="97.54" rx="7.5" stroke="#E2E5F1"/>
<g clip-path="url(#clip2_20005128_14627)">
<g clip-path="url(#clip3_20005128_14627)">
<path d="M226.199 71.8061C225.833 72.1721 225.559 72.5381 225.376 72.9956C225.193 73.453 225.193 73.9105 225.193 74.4595C225.284 75.0084 225.193 75.6489 225.01 76.1978C224.827 76.7468 224.461 77.2043 224.095 77.6617C223.729 78.0277 223.18 78.3937 222.631 78.5767C222.082 78.7597 221.533 78.8511 220.893 78.7597C220.161 78.6682 219.52 78.8511 218.88 79.2171C218.239 79.5831 217.782 80.0406 217.507 80.681C217.238 81.3154 217.143 82.0104 217.233 82.6939C217.324 83.3343 217.69 83.9748 218.148 84.5237C218.605 84.9812 219.246 85.3472 219.978 85.4387C220.661 85.5285 221.356 85.4337 221.99 85.1642C222.631 84.8897 223.18 84.4323 223.454 83.7918C223.729 83.1513 223.912 82.5109 223.912 81.7789C223.82 81.23 223.912 80.5895 224.095 80.0406C224.278 79.4916 224.644 79.0341 225.01 78.5767C225.376 78.2107 225.925 77.8447 226.474 77.6617C227.023 77.4787 227.572 77.3873 228.212 77.4787C228.761 77.5702 229.31 77.4787 229.859 77.2043C230.408 77.0213 230.865 76.6553 231.14 76.1978C231.506 75.7404 231.689 75.1914 231.78 74.6424C231.872 74.0935 231.78 73.5445 231.597 72.9956C231.414 72.4466 231.048 71.9891 230.682 71.6232C230.225 71.2572 229.767 70.9827 229.218 70.8912C228.669 70.7997 228.121 70.7997 227.572 70.9827C227.114 71.0742 226.657 71.3487 226.199 71.8061ZM219.429 76.5638C219.886 76.5638 220.435 76.5638 220.893 76.3808C221.35 76.1978 221.807 75.9234 222.082 75.5574C222.448 75.1914 222.722 74.8254 222.905 74.368C223.088 73.9105 223.088 73.453 223.088 72.9041C222.997 72.3551 223.088 71.7147 223.271 71.1657C223.454 70.6167 223.82 70.1593 224.186 69.7018C224.552 69.3358 225.101 68.9698 225.65 68.7869C226.199 68.6039 226.748 68.5124 227.389 68.6039C228.121 68.6954 228.761 68.5124 229.401 68.1464C230.042 67.7804 230.499 67.323 230.774 66.6825C231.043 66.0481 231.138 65.3531 231.048 64.6697C230.957 64.0292 230.591 63.3887 230.133 62.8398C229.676 62.3823 229.035 62.0163 228.304 61.9248C227.62 61.835 226.925 61.9298 226.291 62.1993C225.65 62.4738 225.101 62.9313 224.827 63.5717C224.461 64.2122 224.369 64.8526 224.369 65.5846C224.461 66.1335 224.369 66.774 224.186 67.323C224.003 67.8719 223.637 68.3294 223.271 68.7869C222.905 69.1528 222.356 69.5188 221.807 69.7018C221.259 69.8848 220.71 69.9763 220.069 69.8848C219.612 69.7933 219.063 69.8848 218.605 70.0678C218.148 70.2508 217.69 70.5252 217.416 70.8912C217.05 71.2572 216.775 71.6232 216.592 72.0806C216.409 72.5381 216.409 72.9956 216.409 73.5445C216.501 74.0935 216.409 74.7339 216.226 75.2829C216.043 75.8319 215.677 76.2893 215.311 76.7468C214.945 77.1128 214.396 77.4787 213.848 77.6617C213.299 77.7532 212.658 77.8447 212.109 77.8447C211.377 77.7532 210.737 77.9362 210.096 78.3022C209.456 78.6682 208.998 79.1256 208.724 79.7661C208.454 80.4005 208.36 81.0955 208.449 81.7789C208.541 82.4194 208.907 83.0598 209.364 83.6088C209.822 84.0663 210.462 84.4323 211.194 84.5237C211.878 84.6136 212.573 84.5188 213.207 84.2493C213.848 83.9748 214.396 83.5173 214.671 82.8769C215.037 82.2364 215.128 81.596 215.128 80.864C215.037 80.315 215.128 79.6746 215.311 79.1256C215.494 78.5767 215.86 78.1192 216.226 77.6617C216.592 77.2958 217.141 76.9298 217.69 76.7468L219.429 76.5638ZM213.299 74.7339C213.665 74.368 213.939 74.002 214.031 73.5445C214.122 73.0871 214.214 72.6296 214.214 72.0806C214.122 71.5317 214.214 70.8912 214.397 70.3422C214.579 69.7933 214.945 69.3358 215.311 68.8784C215.677 68.5124 216.226 68.1464 216.775 67.9634C217.324 67.7804 217.873 67.6889 218.514 67.7804C219.246 67.8719 219.886 67.6889 220.527 67.323C221.167 66.957 221.624 66.4995 221.899 65.8591C222.168 65.2246 222.263 64.5296 222.173 63.8462C222.082 63.2058 221.716 62.5653 221.259 62.0163C220.801 61.5589 220.161 61.1929 219.429 61.1014C218.745 61.0116 218.05 61.1064 217.416 61.3759C216.775 61.6504 216.226 62.1078 215.952 62.7483C215.586 63.3887 215.494 64.0292 215.494 64.7611C215.586 65.3101 215.494 65.9506 215.311 66.4995C215.128 67.0485 214.762 67.506 214.397 67.9634C214.031 68.3294 213.482 68.6954 212.933 68.8784C212.384 69.0613 211.835 69.1528 211.194 69.0613C210.645 68.9698 210.096 69.0613 209.547 69.3358C208.998 69.5188 208.541 69.8848 208.266 70.3422C207.9 70.7997 207.717 71.3487 207.626 71.8976C207.534 72.4466 207.626 72.9956 207.809 73.5445C207.992 74.0935 208.358 74.551 208.724 74.9169C209.181 75.2829 209.639 75.5574 210.188 75.6489C210.737 75.7404 211.286 75.7404 211.835 75.5574C212.475 75.4659 212.933 75.1914 213.299 74.7339ZM241.662 65.6761H244.406V78.9426H241.662V65.6761ZM245.962 74.368C245.962 73.453 246.236 72.4466 246.785 71.7147C247.334 70.8912 248.066 70.3422 248.981 69.9763C249.896 69.6103 250.811 69.5188 251.726 69.7018C252.641 69.8848 253.556 70.3422 254.196 70.9827C254.837 71.6232 255.294 72.5381 255.477 73.453C255.66 74.368 255.569 75.3744 255.203 76.1978C254.837 77.1128 254.196 77.8447 253.464 78.3937C252.681 78.9255 251.757 79.2122 250.811 79.2171C250.17 79.2171 249.53 79.1256 248.981 78.8511C248.432 78.5767 247.883 78.3022 247.426 77.8447C246.968 77.3873 246.602 76.8383 246.419 76.2893C246.115 75.6948 245.958 75.0358 245.962 74.368ZM252.824 74.368C252.824 74.002 252.641 73.5445 252.458 73.27C252.183 72.9041 251.909 72.7211 251.543 72.5381C251.177 72.3551 250.719 72.3551 250.353 72.4466C249.987 72.5381 249.622 72.7211 249.347 72.9956C249.073 73.27 248.89 73.636 248.798 74.0935C248.707 74.4595 248.798 74.9169 248.89 75.2829C249.073 75.6489 249.347 76.0148 249.622 76.1978C249.987 76.3808 250.353 76.5638 250.811 76.5638C251.085 76.5638 251.36 76.5638 251.634 76.3808C251.909 76.2893 252.092 76.1063 252.366 75.9234C252.549 75.7404 252.732 75.4659 252.824 75.1914V74.368ZM266.365 69.7933V78.3937C266.365 81.413 263.986 82.6939 261.607 82.6939C260.784 82.7854 259.869 82.6024 259.137 82.2364C258.405 81.8704 257.764 81.23 257.307 80.498L259.594 79.1256C259.777 79.4916 260.052 79.8576 260.418 80.0406C260.789 80.2179 261.195 80.3116 261.607 80.315C261.882 80.315 262.156 80.315 262.431 80.2235C262.705 80.1321 262.888 80.0406 263.163 79.8576C263.345 79.6669 263.499 79.4512 263.62 79.2171C263.712 78.9426 263.712 78.6682 263.712 78.3937V77.5702C263.4 77.9719 262.99 78.2869 262.522 78.4852C262.065 78.6682 261.607 78.7597 261.058 78.7597C259.869 78.7597 258.771 78.2107 257.856 77.3873C257.032 76.5638 256.575 75.3744 256.575 74.185C256.575 72.9956 257.032 71.8061 257.856 70.9827C258.679 70.1593 259.777 69.6103 261.058 69.6103C261.559 69.6126 262.055 69.7056 262.522 69.8848C262.98 70.0678 263.346 70.4337 263.712 70.7997V69.8848L266.365 69.7933ZM263.712 74.185C263.712 73.7275 263.62 73.27 263.346 72.9041C263.071 72.5381 262.797 72.2636 262.339 72.0806C261.944 71.8803 261.494 71.816 261.058 71.8976C260.601 71.9891 260.235 72.1721 259.869 72.4466C259.594 72.7211 259.32 73.1785 259.228 73.5445C259.137 74.002 259.137 74.4595 259.32 74.8254C259.503 75.1914 259.777 75.5574 260.143 75.8319C260.509 76.1063 260.967 76.1978 261.333 76.1978C261.607 76.1978 261.882 76.1978 262.156 76.1063C262.431 76.0148 262.705 75.8319 262.888 75.6489C263.071 75.4659 263.254 75.1914 263.346 74.9169C263.712 74.7339 263.712 74.4595 263.712 74.185ZM267.92 74.368C267.92 73.453 268.195 72.4466 268.744 71.7147C269.293 70.8912 270.025 70.3422 270.939 69.9763C271.854 69.6103 272.769 69.5188 273.684 69.7018C274.599 69.8848 275.514 70.3422 276.155 70.9827C276.795 71.6232 277.253 72.5381 277.436 73.453C277.619 74.368 277.527 75.3744 277.161 76.1978C276.795 77.1128 276.155 77.8447 275.423 78.3937C274.64 78.9255 273.716 79.2122 272.769 79.2171C272.129 79.2171 271.488 79.1256 270.939 78.8511C270.391 78.5767 269.842 78.3022 269.384 77.8447C268.927 77.3873 268.561 76.8383 268.378 76.2893C268.073 75.6948 267.916 75.0358 267.92 74.368ZM274.782 74.368C274.782 74.002 274.599 73.5445 274.416 73.27C274.142 72.9041 273.867 72.7211 273.501 72.5381C273.135 72.3551 272.678 72.3551 272.312 72.4466C271.946 72.5381 271.58 72.7211 271.214 72.9956C270.939 73.27 270.757 73.636 270.665 74.0935C270.574 74.4595 270.665 74.9169 270.757 75.2829C270.848 75.6489 271.214 76.0148 271.488 76.1978C271.854 76.3808 272.22 76.5638 272.678 76.5638C272.952 76.5638 273.227 76.5638 273.501 76.3808C273.776 76.2893 273.959 76.1063 274.233 75.9234C274.416 75.7404 274.599 75.4659 274.691 75.1914C274.782 74.9169 274.782 74.6424 274.782 74.368ZM278.808 67.4145C278.801 67.0882 278.897 66.7679 279.082 66.4995C279.265 66.225 279.54 66.0421 279.814 65.8591C280.089 65.7676 280.455 65.6761 280.729 65.7676C281.004 65.8591 281.37 65.9506 281.553 66.225C281.736 66.408 281.919 66.774 282.01 67.0485C282.102 67.323 282.01 67.6889 281.919 67.9634C281.827 68.2379 281.553 68.5124 281.278 68.6954C281.01 68.8811 280.69 68.9772 280.363 68.9698C279.906 68.9698 279.54 68.7869 279.174 68.5124C278.991 68.2379 278.808 67.7804 278.808 67.4145ZM279.082 69.7933H281.827V78.8511H279.082V69.7933ZM293.538 74.368C293.538 75.0084 293.447 75.5574 293.264 76.1063C293.081 76.6553 292.715 77.2043 292.349 77.6617C291.983 78.1192 291.434 78.4852 290.885 78.7597C290.336 79.0341 289.787 79.1256 289.147 79.2171C288.598 79.2171 288.14 79.1256 287.683 78.9426C287.225 78.7597 286.768 78.4852 286.493 78.1192V82.6024H283.749V69.7933H286.493V70.6167C286.859 70.2508 287.225 69.9763 287.683 69.7933C288.15 69.6141 288.646 69.5212 289.147 69.5188C289.787 69.5188 290.336 69.7018 290.885 69.9763C291.434 70.2508 291.891 70.6167 292.349 71.0742C292.715 71.5317 293.081 72.0806 293.264 72.6296C293.447 73.1785 293.538 73.7275 293.538 74.368ZM290.794 74.368C290.794 73.9105 290.611 73.5445 290.428 73.1785C290.153 72.8126 289.879 72.5381 289.421 72.4466C289.055 72.2636 288.598 72.2636 288.14 72.3551C287.683 72.4466 287.317 72.6296 287.042 72.9956C286.768 73.27 286.585 73.7275 286.493 74.0935C286.402 74.551 286.493 74.9169 286.585 75.3744C286.768 75.7404 287.042 76.1063 287.408 76.2893C287.774 76.5638 288.14 76.6553 288.598 76.6553C288.872 76.6553 289.147 76.6553 289.421 76.4723C289.696 76.3808 289.97 76.1978 290.153 76.0148C290.336 75.8319 290.519 75.5574 290.611 75.2829C290.794 74.9169 290.794 74.6424 290.794 74.368ZM301.864 76.1063C301.864 78.2107 300.034 79.0341 298.113 79.0341C297.29 79.1256 296.558 78.9426 295.826 78.5767C295.094 78.2107 294.545 77.5702 294.179 76.9298L296.558 75.5574C296.649 75.9234 296.832 76.1978 297.107 76.3808C297.381 76.5546 297.697 76.6496 298.022 76.6553C298.662 76.6553 299.028 76.4723 299.028 76.1063C299.028 75.0999 294.545 75.6489 294.545 72.5381C294.545 70.5252 296.192 69.6103 298.113 69.6103C298.845 69.6103 299.485 69.7933 300.126 70.0678C300.742 70.4088 301.249 70.916 301.59 71.5317L299.302 72.8126C299.211 72.5381 299.028 72.3551 298.845 72.2636C298.662 72.1721 298.388 72.0806 298.113 72.0806C297.656 72.0806 297.381 72.2636 297.381 72.6296C297.473 73.453 301.864 72.8126 301.864 76.1063ZM311.837 69.7933V78.8511H309.092V78.0277C308.818 78.3937 308.36 78.6682 307.903 78.8511C307.445 79.0341 306.988 79.1256 306.439 79.1256C304.609 79.1256 303.054 77.8447 303.054 75.3744V69.7933H305.799V74.9169C305.799 75.0999 305.799 75.3744 305.89 75.5574C305.981 75.7404 306.073 75.9234 306.256 76.1063C306.439 76.2893 306.622 76.3808 306.805 76.4723C306.988 76.5638 307.262 76.5638 307.445 76.5638C308.452 76.5638 309.092 76.0148 309.092 74.7339V69.7933H311.837ZM327.391 73.27V78.8511H324.646V73.5445C324.646 72.6296 324.189 72.0806 323.365 72.0806C322.45 72.0806 321.993 72.7211 321.993 73.819V78.9426H319.248V73.636C319.248 72.7211 318.791 72.1721 317.967 72.1721C317.052 72.1721 316.595 72.8126 316.595 73.9105V79.0341H313.85V69.9763H316.595V70.7997C316.877 70.4281 317.257 70.1429 317.693 69.9763C318.15 69.7933 318.608 69.7018 319.065 69.7018C319.523 69.7018 319.98 69.7933 320.437 69.9763C320.895 70.1593 321.169 70.5252 321.444 70.8912C321.756 70.4896 322.165 70.1746 322.633 69.9763C323.101 69.7971 323.597 69.7041 324.097 69.7018C326.019 69.5188 327.391 71.0742 327.391 73.27ZM329.678 69.7018C330.211 69.697 330.72 69.4834 331.096 69.107C331.473 68.7305 331.686 68.2213 331.691 67.6889C331.686 67.1566 331.473 66.6474 331.096 66.2709C330.72 65.8945 330.211 65.6809 329.678 65.6761C329.146 65.6809 328.637 65.8945 328.26 66.2709C327.884 66.6474 327.67 67.1566 327.665 67.6889C327.665 68.8784 328.58 69.7018 329.678 69.7018Z" fill="#B4B7C9"/>
</g>
</g>
<rect x="373.5" y="24.5" width="157.5" height="97.54" rx="7.5" fill="white"/>
<rect x="373.5" y="24.5" width="157.5" height="97.54" rx="7.5" stroke="#E2E5F1"/>
<g clip-path="url(#clip4_20005128_14627)">
<g clip-path="url(#clip5_20005128_14627)">
<path d="M451.976 79.1257H447.309V66.5911H451.976V79.1257ZM447.767 78.6683H451.518V67.0486H447.767V78.6683ZM458.472 79.1257H453.897V66.5911H463.504C464.876 66.4996 466.249 66.8656 467.346 67.689C467.793 68.1459 468.163 68.6709 468.444 69.2444C468.719 69.8849 468.81 70.5253 468.719 71.1658C468.81 72.2637 468.444 73.3616 467.712 74.2766C466.889 75.283 465.517 75.7405 463.595 75.7405H458.563L458.472 79.1257ZM454.354 78.6683H458.014V75.283H458.289H463.595C465.334 75.283 466.706 74.8255 467.438 74.0021C468.078 73.1787 468.353 72.2637 468.353 71.2573C468.444 70.7083 468.353 70.0679 468.17 69.5189C467.987 68.97 467.621 68.5125 467.164 68.055C466.157 67.3231 464.876 66.9571 463.595 67.0486H454.446L454.354 78.6683ZM462.497 72.9042H458.014V69.5189H462.589C462.955 69.5189 463.229 69.5189 463.504 69.6104C463.778 69.7019 464.053 69.8849 464.327 70.1594C464.51 70.4339 464.602 70.7998 464.602 71.2573C464.602 71.6233 464.51 71.8977 464.419 72.2637C464.236 72.5382 463.961 72.7212 463.595 72.8127C463.229 72.9042 462.863 72.9957 462.497 72.9042ZM458.472 72.4467H462.497C463.229 72.4467 463.687 72.2637 463.961 71.9892C464.053 71.7148 464.144 71.5318 464.144 71.2573C464.144 70.9828 464.144 70.7083 463.961 70.4339C463.778 70.0679 463.321 69.9764 462.589 69.9764H458.472V72.4467ZM477.045 79.3087C472.928 79.3087 470.457 78.3023 469.542 76.1979C469.359 75.832 469.268 75.3745 469.268 74.917V74.6426H474.117V74.8255C474.117 75.0085 474.208 75.1915 474.391 75.3745C474.574 75.649 475.215 76.015 477.411 76.015C479.973 76.015 479.973 75.5575 479.973 75.283C479.973 74.917 479.698 74.734 477.594 74.5511H477.228L474.94 74.3681C471.098 74.0021 469.359 72.8127 469.359 70.5253C469.359 68.055 472.287 66.4996 476.77 66.4996C480.43 66.4996 482.809 67.5061 483.815 69.4274C484.09 69.8849 484.181 70.3424 484.273 70.8913V71.1658H479.424V70.9828C479.424 70.7998 479.332 70.7083 479.241 70.5253C479.058 70.2509 478.509 69.8849 476.679 69.8849C474.483 69.8849 474.208 70.1594 474.208 70.4339C474.208 70.7998 474.94 70.9828 477.136 71.2573L480.064 71.5318C483.266 71.8978 484.73 73.0872 484.73 75.283C484.639 77.0214 483.358 79.3087 477.045 79.3087ZM469.725 75.1C469.817 75.3745 469.817 75.7405 470 76.015C470.823 77.9363 473.202 78.8513 477.045 78.8513C480.339 78.8513 484.181 78.2108 484.181 75.1C484.181 73.0872 482.9 72.0807 479.973 71.8063C479.424 71.7148 477.96 71.6233 477.045 71.5318C474.666 71.2573 473.66 71.1658 473.66 70.2509C473.66 69.3359 474.666 69.2444 476.587 69.2444C478.143 69.2444 479.058 69.5189 479.515 70.0679C479.607 70.1594 479.698 70.3424 479.79 70.5253H483.724C483.632 70.1594 483.541 69.7934 483.358 69.5189C482.443 67.7805 480.247 66.8656 476.679 66.8656C472.47 66.8656 469.725 68.238 469.725 70.4339C469.725 72.5382 471.281 73.5446 474.849 73.8191C475.306 73.8191 476.313 73.9106 477.136 74.0021H477.502C479.424 74.1851 480.339 74.3681 480.339 75.1915C480.339 76.1979 479.241 76.3809 477.319 76.3809C475.581 76.3809 474.391 76.1065 474.026 75.5575C473.934 75.3745 473.751 75.1915 473.751 75.0085H469.725V75.1ZM493.331 79.3087C488.573 79.3087 485.92 77.3874 485.92 73.9106V66.6826H490.586V73.9106C490.586 75.1 491.684 75.832 493.514 75.832C495.343 75.832 496.441 75.1 496.441 73.9106V66.6826H501.016V74.1851C501.016 77.3874 498.18 79.3087 493.331 79.3087ZM486.377 67.0486V73.8191C486.377 78.1193 490.769 78.7598 493.331 78.7598C495.984 78.7598 500.559 78.1193 500.559 74.1851V67.0486H496.899V73.8191C496.899 75.1915 495.618 76.1979 493.514 76.1979C491.409 76.1979 490.128 75.283 490.128 73.8191V67.0486H486.377ZM520.413 79.1257H516.021V73.4531L513.551 79.1257H509.708L507.238 73.4531V79.1257H502.846V66.5911H508.61L511.629 73.4531L514.74 66.5911H520.321L520.413 79.1257ZM516.479 78.6683H519.955V67.0486H515.106L511.629 74.6426L508.336 67.0486H503.303V78.6683H506.78V71.2573L509.982 78.6683H513.185L516.387 71.2573L516.479 78.6683ZM388.296 66.7741H384.087V78.8513H395.616V75.649H388.296V66.7741ZM404.033 66.4996C398.726 66.4996 395.89 69.0615 395.89 72.7212C395.89 76.9299 398.818 79.0342 404.033 79.0342C409.706 79.0342 412.176 76.5639 412.176 72.7212C412.084 68.8785 409.431 66.4996 404.033 66.4996ZM404.033 69.7019C404.399 69.7019 404.765 69.7019 405.131 69.7934L400.465 74.4596C400.282 74.0021 400.099 73.4531 400.19 72.9042C400.099 70.8913 401.014 69.7019 404.033 69.7019ZM404.033 76.015C403.667 76.015 403.301 76.015 403.027 75.9235L407.693 71.2573C407.876 71.7148 407.967 72.2637 407.967 72.8127C407.967 74.6426 407.052 75.9235 404.033 76.015ZM420.41 74.3681H424.711C424.619 74.6426 424.528 74.917 424.345 75.1915C423.43 75.9235 422.332 76.2894 421.142 76.1979C420.593 76.2894 419.953 76.1979 419.404 76.015C418.855 75.832 418.397 75.5575 417.94 75.1C417.483 74.4596 417.3 73.7276 417.391 72.9042C417.3 72.0807 417.574 71.2573 418.031 70.6168C418.672 69.9764 419.678 69.6104 421.142 69.6104C422.057 69.5189 423.064 69.7934 423.796 70.3424C424.07 70.5253 424.253 70.7998 424.345 71.0743H428.279C428.279 70.6168 428.096 70.0679 427.913 69.6104C426.998 67.689 424.711 66.4996 420.959 66.4996C417.666 66.4996 415.47 67.5061 414.28 68.97C413.457 70.0679 413.091 71.3488 413.091 72.7212C412.999 74.0936 413.457 75.466 414.189 76.5639C415.378 78.1193 417.483 78.8513 420.136 78.8513C421.874 78.9428 423.521 78.4853 424.894 77.4789L424.985 78.6683H428.279V71.5318H420.227V74.3681H420.41ZM437.794 66.4996C432.487 66.4996 429.651 69.0615 429.651 72.7212C429.651 76.9299 432.579 79.0342 437.794 79.0342C443.467 79.0342 445.937 76.5639 445.937 72.7212C445.846 68.8785 443.192 66.4996 437.794 66.4996ZM437.794 69.7019C438.16 69.7019 438.526 69.7019 438.892 69.7934L434.226 74.4596C434.043 74.0021 433.951 73.4531 433.951 72.9042C433.86 70.8913 434.775 69.7019 437.794 69.7019ZM437.794 75.9235C437.428 75.9235 437.062 75.9235 436.696 75.832L441.362 71.1658C441.545 71.6233 441.728 72.1722 441.637 72.7212C441.728 74.6426 440.813 75.9235 437.794 75.9235Z" fill="#B4B7C9"/>
</g>
</g>
<rect x="556" y="24.5" width="157.5" height="97.54" rx="7.5" fill="white"/>
<rect x="556" y="24.5" width="157.5" height="97.54" rx="7.5" stroke="#E2E5F1"/>
<g clip-path="url(#clip6_20005128_14627)">
<g clip-path="url(#clip7_20005128_14627)">
<path d="M587.814 63.8463V59.9121H575.554V86.6282H587.814V82.7855C585.344 82.7855 582.873 81.7791 581.135 80.0407C579.396 78.3023 578.39 75.832 578.39 73.3617C578.39 70.8913 579.396 68.421 581.135 66.6826C582.965 64.7613 585.344 63.8463 587.814 63.8463Z" fill="#B4B7C9"/>
<path d="M587.814 63.8463V82.7855C590.284 82.7855 592.754 81.779 594.493 80.0407C596.231 78.3023 597.238 75.832 597.238 73.3616C597.238 70.8913 596.231 68.421 594.493 66.6826C592.754 64.7612 590.376 63.8463 587.814 63.8463ZM604.191 66.2251H606.936V79.4002H604.191V66.2251ZM608.491 74.917C608.491 74.0021 608.766 72.9957 609.315 72.2637C609.864 71.4403 610.596 70.8913 611.511 70.5253C612.426 70.1594 613.341 70.0679 614.255 70.2509C615.17 70.4338 616.085 70.8913 616.726 71.5318C617.366 72.1722 617.824 73.0872 618.007 74.0021C618.19 74.917 618.098 75.9235 617.732 76.7469C617.366 77.6618 616.726 78.3938 615.994 78.8513C615.211 79.3831 614.287 79.6697 613.341 79.6747C612.7 79.6747 612.06 79.5832 611.511 79.3087C610.962 79.0342 610.413 78.7598 609.955 78.3023C609.498 77.8448 609.132 77.2959 608.949 76.7469C608.583 76.1064 608.491 75.466 608.491 74.917ZM615.353 74.917C615.353 74.5511 615.17 74.0936 614.987 73.8191C614.713 73.4531 614.438 73.2701 614.072 73.0872C613.707 72.9042 613.249 72.9042 612.883 72.9957C612.517 73.0872 612.151 73.2701 611.785 73.5446C611.511 73.8191 611.328 74.1851 611.236 74.6425C611.145 75.0085 611.236 75.466 611.328 75.832C611.511 76.1979 611.785 76.5639 612.06 76.7469C612.426 76.9299 612.792 77.1129 613.249 77.1129C613.524 77.1129 613.798 77.0214 614.072 76.9299C614.347 76.8384 614.53 76.6554 614.713 76.4724C614.896 76.2894 615.079 76.015 615.17 75.7405C615.353 75.466 615.353 75.1915 615.353 74.917ZM628.894 70.3424V78.9427C628.894 81.962 626.516 83.2429 624.137 83.2429C623.313 83.3344 622.398 83.1514 621.666 82.7855C620.934 82.4195 620.294 81.779 619.837 81.0471L622.124 79.6747C622.307 80.0407 622.581 80.4066 622.947 80.5896C623.319 80.7669 623.725 80.8606 624.137 80.8641C624.411 80.8641 624.686 80.8641 624.96 80.7726C625.235 80.6811 625.418 80.5896 625.692 80.4066C625.875 80.2236 626.058 80.0407 626.15 79.7662C626.241 79.4917 626.333 79.2172 626.241 78.9427V78.1193C625.929 78.5209 625.52 78.836 625.052 79.0342C624.594 79.2172 624.137 79.3087 623.588 79.3087C622.398 79.3087 621.209 78.8512 620.386 77.9363C619.562 77.1129 619.013 75.9235 619.013 74.734C619.013 73.5446 619.471 72.3552 620.386 71.5318C621.209 70.7083 622.398 70.1594 623.588 70.1594C624.088 70.1617 624.584 70.2547 625.052 70.4338C625.509 70.6168 625.875 70.9828 626.241 71.3488V70.4338L628.894 70.3424ZM626.241 74.6425C626.241 74.1851 626.15 73.7276 625.875 73.3616C625.601 72.9957 625.326 72.7212 624.869 72.5382C624.474 72.3379 624.023 72.2736 623.588 72.3552C623.13 72.4467 622.764 72.6297 622.398 72.9042C622.124 73.1787 621.849 73.6361 621.758 74.0021C621.666 74.4596 621.666 74.917 621.849 75.283C622.032 75.649 622.307 76.0149 622.673 76.2894C623.039 76.5639 623.496 76.6554 623.862 76.6554C624.137 76.6554 624.411 76.6554 624.686 76.5639C624.96 76.4724 625.235 76.2894 625.418 76.1064C625.601 75.9235 625.784 75.649 625.875 75.3745C626.241 75.283 626.241 75.0085 626.241 74.6425ZM630.45 74.917C630.45 74.0021 630.724 72.9957 631.273 72.2637C631.822 71.4403 632.554 70.8913 633.469 70.5253C634.384 70.1594 635.299 70.0679 636.214 70.2509C637.129 70.4338 638.044 70.8913 638.684 71.5318C639.325 72.1722 639.782 73.0872 639.965 74.0021C640.148 74.917 640.057 75.9235 639.691 76.7469C639.325 77.6618 638.684 78.3938 637.952 78.9427C637.169 79.4746 636.246 79.7612 635.299 79.7662C634.659 79.7662 634.018 79.6747 633.469 79.4002C632.92 79.1257 632.371 78.8512 631.914 78.3938C631.456 77.9363 631.09 77.3874 630.907 76.8384C630.603 76.2439 630.446 75.5849 630.45 74.917ZM637.312 74.917C637.312 74.5511 637.129 74.0936 636.946 73.7276C636.671 73.3616 636.397 73.1787 636.031 72.9957C635.665 72.8127 635.207 72.8127 634.842 72.9042C634.476 72.9957 634.11 73.1787 633.744 73.4531C633.378 73.7276 633.286 74.0936 633.195 74.5511C633.103 74.917 633.195 75.3745 633.286 75.7405C633.469 76.1064 633.744 76.4724 634.018 76.6554C634.384 76.8384 634.75 77.0214 635.207 77.0214C635.482 77.0214 635.756 76.9299 636.031 76.8384C636.305 76.7469 636.488 76.5639 636.671 76.3809C636.854 76.1979 637.037 75.9235 637.129 75.649C637.312 75.466 637.312 75.1915 637.312 74.917ZM641.246 67.9635C641.239 67.6372 641.335 67.317 641.521 67.0486C641.704 66.7741 641.978 66.5911 642.252 66.4081C642.527 66.3166 642.893 66.2251 643.167 66.3166C643.442 66.4081 643.808 66.4996 643.991 66.7741C644.174 66.9571 644.357 67.3231 644.448 67.5975C644.54 67.872 644.448 68.238 644.357 68.5125C644.265 68.787 643.991 69.0614 643.716 69.2444C643.448 69.4302 643.128 69.5263 642.801 69.5189C642.344 69.5189 641.978 69.3359 641.612 69.0614C641.429 68.787 641.338 68.3295 641.246 67.9635ZM641.521 70.3424H644.265V79.4002H641.521V70.3424ZM656.068 74.917C656.068 75.5575 655.977 76.1064 655.794 76.6554C655.611 77.2044 655.245 77.7533 654.879 78.2108C654.513 78.6683 653.964 79.0342 653.415 79.3087C652.866 79.5832 652.317 79.6747 651.676 79.7662C651.127 79.7662 650.67 79.6747 650.212 79.4917C649.755 79.3087 649.297 79.0342 648.932 78.6683V83.1514H646.187V70.3424H648.932V71.1658C649.297 70.7998 649.663 70.5253 650.212 70.3424C650.68 70.1632 651.176 70.0702 651.676 70.0679C652.317 70.0679 652.866 70.2509 653.415 70.5253C653.964 70.7998 654.421 71.1658 654.879 71.6233C655.245 72.0807 655.611 72.6297 655.794 73.1787C655.977 73.6361 656.068 74.2766 656.068 74.917ZM653.323 74.917C653.323 74.4596 653.14 74.0936 652.957 73.7276C652.683 73.3616 652.408 73.0872 651.951 72.9957C651.585 72.8127 651.127 72.8127 650.67 72.9042C650.212 72.9957 649.846 73.1787 649.572 73.5446C649.297 73.8191 649.114 74.2766 649.023 74.6425C648.931 75.1 649.023 75.466 649.114 75.9235C649.297 76.2894 649.572 76.6554 649.938 76.8384C650.304 77.1129 650.67 77.2044 651.127 77.2044C651.402 77.2044 651.676 77.2044 651.951 77.0214C652.225 76.9299 652.5 76.7469 652.683 76.5639C652.866 76.3809 653.049 76.1064 653.14 75.832C653.323 75.466 653.323 75.1915 653.323 74.917ZM664.394 76.6554C664.394 78.7598 662.564 79.5832 660.643 79.5832C659.819 79.6747 659.087 79.4917 658.355 79.1257C657.623 78.7598 657.074 78.1193 656.708 77.4788L659.087 76.1064C659.179 76.4724 659.362 76.7469 659.636 76.9299C659.91 77.1037 660.227 77.1987 660.551 77.2044C661.192 77.2044 661.558 77.0214 661.558 76.6554C661.558 75.649 657.074 76.1979 657.074 73.0872C657.074 71.0743 658.721 70.1594 660.643 70.1594C661.375 70.1594 662.107 70.2509 662.747 70.6168C663.387 70.9828 663.936 71.4403 664.302 72.0807L661.924 73.3616C661.832 73.0872 661.649 72.9042 661.466 72.8127C661.283 72.6297 661.009 72.6297 660.734 72.6297C660.277 72.6297 660.002 72.8127 660.002 73.0872C659.911 74.0021 664.394 73.3616 664.394 76.6554ZM674.367 70.3424V79.4002H671.622V78.5768C671.347 78.9427 670.89 79.2172 670.432 79.4917C669.975 79.6747 669.518 79.7662 668.969 79.7662C667.139 79.7662 665.583 78.4853 665.583 76.015V70.4338H668.328V75.5575C668.328 75.7405 668.328 76.015 668.42 76.1979C668.511 76.3809 668.603 76.5639 668.786 76.7469C668.969 76.9299 669.152 77.0214 669.335 77.1129C669.518 77.2044 669.792 77.2044 669.975 77.2044C670.981 77.2044 671.622 76.6554 671.622 75.3745V70.4338H674.367V70.3424ZM689.921 73.8191V79.4002H687.176V74.0936C687.176 73.1787 686.718 72.6297 685.895 72.6297C685.071 72.6297 684.431 73.2701 684.431 74.3681V79.4917H681.686V74.1851C681.686 73.2701 681.229 72.7212 680.405 72.7212C679.582 72.7212 678.941 73.3616 678.941 74.4596V79.5832H676.197V70.5253H678.941V71.3488C679.223 70.9772 679.604 70.6919 680.039 70.5253C680.497 70.3424 680.954 70.2509 681.412 70.2509C681.869 70.2509 682.327 70.3424 682.784 70.5253C683.242 70.7083 683.516 71.0743 683.791 71.4403C684.102 71.0386 684.512 70.7236 684.98 70.5253C685.447 70.3462 685.943 70.2532 686.444 70.2509C688.548 70.0679 689.921 71.6233 689.921 73.8191ZM692.208 70.2509C692.74 70.2461 693.25 70.0325 693.626 69.656C694.002 69.2796 694.216 68.7704 694.221 68.238C694.216 67.7056 694.002 67.1964 693.626 66.82C693.25 66.4435 692.74 66.2299 692.208 66.2251C691.676 66.2299 691.166 66.4435 690.79 66.82C690.413 67.1964 690.2 67.7056 690.195 68.238C690.2 68.7704 690.413 69.2796 690.79 69.656C691.166 70.0325 691.676 70.2461 692.208 70.2509Z" fill="#B4B7C9"/>
</g>
</g>
<defs>
<clipPath id="clip0_20005128_14627">
<rect width="140.9" height="32.94" fill="white" transform="translate(16.8 56.8)"/>
</clipPath>
<clipPath id="clip1_20005128_14627">
<rect width="140.9" height="32.94" fill="white" transform="translate(16.8 56.8)"/>
</clipPath>
<clipPath id="clip2_20005128_14627">
<rect width="140.9" height="32.94" fill="white" transform="translate(199.3 56.8)"/>
</clipPath>
<clipPath id="clip3_20005128_14627">
<rect width="140.9" height="32.94" fill="white" transform="translate(199.3 56.8)"/>
</clipPath>
<clipPath id="clip4_20005128_14627">
<rect width="140.9" height="32.94" fill="white" transform="translate(381.8 56.8)"/>
</clipPath>
<clipPath id="clip5_20005128_14627">
<rect width="140.9" height="32.94" fill="white" transform="translate(381.8 56.8)"/>
</clipPath>
<clipPath id="clip6_20005128_14627">
<rect width="140.9" height="32.94" fill="white" transform="translate(564.3 56.8)"/>
</clipPath>
<clipPath id="clip7_20005128_14627">
<rect width="140.9" height="32.94" fill="white" transform="translate(564.3 56.8)"/>
</clipPath>
</defs>
</svg>
